<svg xmlns="http://www.w3.org/2000/svg" viewBox="0 0 512 512">
  <path fill="#E09200" d="M171.56 32.05l5.31-4.25a126.89 126.89 0 01163.57 4.25v80l-6.06-4.72a126.89 126.89 0 00-150.67-3.8l-12.15 8.51z"/>
  <path fill="#FFB01F" d="M171.56 32.05l83.81 111.75A959.93 959.93 0 01378.7 363.24l23.96 59.88L322.66 512l-37.13-111.4a959.89 959.89 0 00-119.65-240.26l-3.98-5.8a96.62 96.62 0 01-17-54.73 96.62 96.62 0 0119.32-57.97z"/>
  <path fill="#FFBC42" d="M340.44 32.05L256.63 143.8A959.93 959.93 0 00133.3 363.24l-23.96 59.88L189.34 512l37.13-111.4a959.89 959.89 0 01119.65-240.26l3.98-5.8a96.62 96.62 0 0017-54.73 96.62 96.62 0 00-19.32-57.97z"/>
</svg>