<svg xmlns="http://www.w3.org/2000/svg" viewBox="0 0 300 90">
  <g fill="#5076b8">
    <path d="M99.65 24.99a6.84 6.84 0 01-2.91.51 5.16 5.16 0 01-5.46-5.58 5.52 5.52 0 015.78-5.82 5.97 5.97 0 012.63.52l-.35 1.17a5 5 0 00-2.25-.47c-2.58 0-4.31 1.65-4.31 4.56 0 2.71 1.56 4.44 4.24 4.44a5.63 5.63 0 002.32-.47zM101.46 14.3h1.41v9.87h4.71v1.18h-6.12zM112.3 11.83l-2.13 1.89H109l1.5-1.93h1.8zm-1.7 2.48v11.04h-1.4V14.3zM113.1 25.39V14.35h1.56l3.54 5.58a30.6 30.6 0 011.97 3.58h.03a55.04 55.04 0 01-.15-4.56V14.3h1.33v11.04h-1.46l-3.49-5.62a35.03 35.03 0 01-2.08-3.69h-.04c.07 1.37.11 2.7.11 4.56v4.7h-1.33zM125.3 14.3v11.05h-1.41V14.3zM135.52 24.99a6.84 6.84 0 01-2.9.51 5.16 5.16 0 01-5.47-5.58 5.52 5.52 0 015.78-5.82 5.97 5.97 0 012.63.52l-.35 1.17a5 5 0 00-2.25-.47c-2.58 0-4.31 1.65-4.31 4.56 0 2.71 1.57 4.44 4.24 4.44a5.63 5.63 0 002.31-.47zM139.1 21.89l-1.14 3.46h-1.5l3.77-11.05h1.74l3.76 11.05h-1.54l-1.17-3.46zm3.61-1.1l-1.1-3.17c-.23-.72-.4-1.39-.59-2.02h-.04c-.15.68-.35 1.33-.54 2l-1.11 3.2zM152.25 14.3v4.65h5.35V14.3h1.45v11.04h-1.45v-5.18h-5.35v5.18h-1.4V14.3zM170.95 19.73c0 3.8-2.31 5.8-5.15 5.8-2.9 0-4.94-2.27-4.94-5.6 0-3.51 2.16-5.83 5.15-5.83 2.98.05 4.94 2.36 4.94 5.63zm-8.6.2c0 2.35 1.3 4.47 3.53 4.47 2.29 0 3.55-2.08 3.55-4.6 0-2.2-1.15-4.48-3.55-4.48-2.35-.04-3.53 2.16-3.53 4.6zM172.6 23.6a5.02 5.02 0 002.55.72c1.46 0 2.32-.78 2.32-1.89 0-1.02-.59-1.6-2.08-2.2-1.8-.62-2.91-1.57-2.91-3.14 0-1.74 1.41-2.99 3.58-2.99a4.94 4.94 0 012.43.56l-.39 1.18a4.4 4.4 0 00-2.09-.52c-1.48 0-2.08.9-2.08 1.64 0 1.03.67 1.54 2.2 2.13 1.89.72 2.83 1.61 2.83 3.26 0 1.69-1.26 3.18-3.85 3.18a5.77 5.77 0 01-2.83-.7zM180.86 14.47a16.53 16.53 0 012.75-.2 4.58 4.58 0 013.1.9 3.03 3.03 0 01.98 2.32 3.34 3.34 0 01-.86 2.36 4.6 4.6 0 01-3.38 1.2 5.02 5.02 0 01-1.14-.06v4.44h-1.41V14.47zm1.45 5.3a4.96 4.96 0 001.18.12c1.73 0 2.75-.83 2.75-2.35 0-1.46-1.02-2.17-2.6-2.17a5.09 5.09 0 00-1.33.12zM191.04 14.3v11.05h-1.42V14.3zM195.63 15.53h-3.38V14.3h8.18v1.22h-3.38v9.82h-1.46v-9.83zM203.45 21.89l-1.14 3.46h-1.5l3.77-11.05h1.75l3.75 11.05h-1.53l-1.18-3.46zm3.61-1.1l-1.1-3.18c-.23-.72-.4-1.39-.59-2.01h-.04c-.15.67-.35 1.33-.54 2l-1.1 3.2zM211.7 14.3h1.41v9.87h4.72v1.18h-6.13zM221.2 21.89l-1.13 3.46h-1.5l3.77-11.05h1.74l3.76 11.05h-1.54l-1.17-3.46zm3.62-1.1l-1.1-3.17c-.23-.72-.4-1.39-.59-2.02h-.04c-.15.68-.35 1.33-.54 2l-1.1 3.2zM229.46 14.46a14.06 14.06 0 012.75-.23 4.4 4.4 0 013.18.9 2.82 2.82 0 01.87 2.09 2.9 2.9 0 01-2.09 2.82v.05a2.72 2.72 0 011.62 2.23 16.34 16.34 0 00.86 3.03h-1.5a13.02 13.02 0 01-.74-2.63c-.31-1.54-.9-2.1-2.2-2.16h-1.33v4.79h-1.42zm1.41 5.03h1.46c1.53 0 2.47-.82 2.47-2.08 0-1.41-1.02-2.05-2.56-2.09a8.07 8.07 0 00-1.4.13v4.04z"/>
    <g>
      <path d="M91.26 58.57v-28.4h5.9l7.34 12.18a77.47 77.47 0 014.84 9.5h.07c-.35-3.8-.47-7.47-.47-11.78v-9.9h4.8v28.4h-5.31L101 46.12a101.47 101.47 0 01-5.1-9.83l-.12.04c.2 3.65.23 7.42.23 12.1v10.14zM137.38 48.12c0 7.54-5.3 10.92-10.53 10.92-5.82 0-10.3-4.01-10.3-10.57 0-6.75 4.44-10.88 10.62-10.88 6.12-.04 10.2 4.28 10.2 10.53zm-15.48.2c0 3.96 1.93 6.94 5.1 6.94 2.95 0 5.03-2.9 5.03-7.02 0-3.23-1.41-6.88-4.99-6.88-3.64 0-5.14 3.53-5.14 6.96zM143.24 38.02l3.34 10.41a47.95 47.95 0 011.38 5.14h.1c.4-1.69.83-3.3 1.38-5.14l3.27-10.41h5.46l-7.83 20.51h-5.1l-7.62-20.51zM179.19 48.12c0 7.54-5.3 10.92-10.53 10.92-5.81 0-10.29-4.01-10.29-10.57 0-6.75 4.43-10.88 10.61-10.88 6.12-.04 10.21 4.28 10.21 10.53zm-15.47.2c0 3.96 1.92 6.94 5.1 6.94 2.95 0 5.02-2.9 5.02-7.02 0-3.23-1.4-6.88-4.98-6.88-3.65 0-5.14 3.53-5.14 6.96zM189.01 58.57v-28.4h5.89l7.35 12.18a77.48 77.48 0 014.84 9.5h.07c-.35-3.8-.47-7.47-.47-11.78v-9.9h4.79v28.4h-5.34l-7.42-12.45a101.47 101.47 0 01-5.12-9.83l-.1.04c.2 3.65.22 7.42.22 12.1v10.14zM227.12 58.57l-.35-2.28h-.12a7.58 7.58 0 01-6.05 2.75 6.1 6.1 0 01-6.45-6.13c0-5.18 4.6-7.78 12.19-7.74v-.35c0-1.33-.55-3.59-4.17-3.59a10.89 10.89 0 00-5.54 1.54l-1.02-3.38a14.64 14.64 0 017.42-1.8c6.55 0 8.49 4.17 8.49 8.64v7.43a29.4 29.4 0 00.3 4.91zm-.67-10.05c-3.66-.09-7.15.7-7.15 3.85a2.72 2.72 0 002.94 2.94 4.18 4.18 0 004.05-2.83 3.97 3.97 0 00.16-1.15zM235.06 53.77a11.7 11.7 0 005.27 1.5c2.27 0 3.3-.95 3.3-2.28 0-1.37-.82-2.12-3.38-2.99-4-1.37-5.7-3.57-5.66-5.97 0-3.62 2.98-6.44 7.73-6.44a12.02 12.02 0 015.43 1.22l-1.02 3.65a9.16 9.16 0 00-4.32-1.17c-1.85 0-2.87.9-2.87 2.15 0 1.3.98 1.93 3.57 2.86 3.69 1.33 5.43 3.27 5.46 6.3 0 3.69-2.9 6.4-8.32 6.4A13.59 13.59 0 01234 57.6zM266.3 57.94a14.97 14.97 0 01-5.82 1.06c-6.4 0-10.57-4.1-10.57-10.44 0-6.17 4.2-10.96 11.44-10.96a13 13 0 015.02.98l-.93 3.9a8.98 8.98 0 00-3.94-.8c-3.97 0-6.32 2.91-6.28 6.65 0 4.2 2.75 6.6 6.28 6.6a10.73 10.73 0 004.1-.8zM272.1 49.72c.13 3.7 3.04 5.3 6.33 5.3a15.51 15.51 0 005.7-.93l.74 3.57a19.46 19.46 0 01-7.14 1.26c-6.64 0-10.57-4.1-10.57-10.37 0-5.7 3.46-11.04 10.01-11.04 6.65 0 8.85 5.45 8.85 9.97a13.72 13.72 0 01-.16 2.2H272.1zm9-3.61c.05-1.89-.78-5.03-4.23-5.03-3.23 0-4.56 2.9-4.76 5.03zM288.49 44.65c0-2.78-.03-4.75-.15-6.59h4.51l.17 3.93h.15a6.15 6.15 0 015.61-4.4 5.83 5.83 0 011.22.12v4.87a8.02 8.02 0 00-1.54-.16 4.59 4.59 0 00-4.64 3.92 9.76 9.76 0 00-.15 1.62v10.61h-5.2z"/>
    </g>
  </g>
  <g fill="#5076b8">
    <path d="M21.45 1.07c7.2 9.46 24.44 13.35 34.31-.56-7.67 19.37-30.97 13.36-34.3.56"/>
    <path d="M38.74 7.94c1.73 0 3.14-1.78 3.14-3.98S40.48 0 38.74 0c-1.73 0-3.14 1.77-3.14 3.97-.04 2.15 1.37 3.97 3.14 3.97M21.97 68.95c7.46-9.28 24.78-12.7 34.25 1.46-7.1-19.53-30.56-14.15-34.25-1.46"/>
    <path d="M39.21 70.49c1.73.04 3.22-1.7 3.26-3.9.08-2.2-1.3-4-3.07-4.04-1.72-.04-3.22 1.69-3.25 3.9-.08 2.2 1.29 4 3.06 4.04M17.56 4.6C22.2 15.56 16.96 32.45 0 34.06c20.55 3 27-20.2 17.56-29.46"/>
    <path d="M8.02 19.02c-.86 1.53-.04 3.61 1.84 4.7 1.89 1.1 4.13.76 5.03-.74.87-1.54.04-3.61-1.84-4.71-1.93-1.1-4.16-.75-5.02.75M17.64 66.87c4.64-10.96-.62-27.85-17.56-29.46 20.59-3.03 27 20.2 17.56 29.46"/>
    <path d="M8.09 52.41c-.86-1.53-.04-3.61 1.84-4.7 1.89-1.1 4.13-.76 5.03.74.87 1.54.04 3.61-1.84 4.71-1.89 1.1-4.12.79-5.02-.75M59.72 4c-4.63 10.96.62 27.86 17.56 29.47C56.73 36.5 50.29 13.27 59.72 4"/>
    <path d="M69.27 18.46c.86 1.54.03 3.62-1.84 4.71-1.88 1.1-4.13.75-5.03-.74-.87-1.54-.04-3.62 1.84-4.71 1.93-1.1 4.16-.8 5.02.74M59.87 66.79c-4.63-10.96.63-27.85 17.56-29.46-20.58-3-27 20.2-17.56 29.46"/>
    <path d="M69.42 52.37c.86-1.53.03-3.61-1.84-4.7-1.88-1.1-4.13-.76-5.04.74-.86 1.53-.03 3.61 1.84 4.7 1.88 1.1 4.13.76 5.04-.74M39.49 34.5c-1.93-3.43-4.8-6.61-8.33-7.67-.9-4.2.08-6.55.82-7.23 6.97 4.09 8.26 9.55 7.52 14.9"/>
    <path d="M40.24 34.34c.62-3.9.39-8.17-1.73-11.2 1.92-3.85 4.16-5.07 5.15-5.15 2.86 7.58.47 12.65-3.42 16.35"/>
    <path d="M40.43 35.28c3-2.52 5.62-5.94 6.01-9.59 3.98-1.64 6.48-1.13 7.23-.5-2.71 7.57-7.85 9.85-13.24 10.09"/>
    <path d="M40.86 36.46c3.9-.44 7.98-1.77 10.33-4.64 4.2.82 6.01 2.66 6.33 3.61-6.52 4.8-12.06 3.81-16.66 1.03"/>
    <path d="M40.14 37.52c3.5 1.8 7.62 2.95 11.17 1.93 3.02 3.07 3.49 5.58 3.22 6.52-8.06.3-12.1-3.58-14.39-8.45"/>
    <path d="M38.98 38.03c1.88 3.47 4.67 6.72 8.17 7.82.82 4.2-.2 6.56-.94 7.2-6.89-4.2-8.1-9.67-7.23-15.02"/>
    <path d="M37.63 37.76c-.47 3.89-.04 8.17 2.17 11.12-1.77 3.92-3.97 5.26-4.95 5.34-3.14-7.43-.98-12.61 2.78-16.46"/>
    <path d="M36.77 36.46c-2.63 2.9-4.75 6.63-4.63 10.33-3.7 2.16-6.25 2-7.11 1.5 1.65-7.9 6.45-10.86 11.74-11.83"/>
    <path d="M36.9 35.2c-3.82.86-7.74 2.66-9.75 5.73-4.28-.36-6.25-1.96-6.68-2.87 5.89-5.45 11.51-5.15 16.43-2.86"/>
    <path d="M38.23 34.4c-3.62-1.49-7.87-2.27-11.29-.93-3.25-2.76-3.96-5.23-3.77-6.2 7.98-1.03 12.34 2.46 15.06 7.14"/>
  </g>
  <path fill="#e09200" d="M8.81 39.66l.56-.45a13.3 13.3 0 0117.16.45v8.39l-.64-.5a13.3 13.3 0 00-15.8-.4l-1.28.9z"/>
  <path fill="#ffb01f" d="M8.81 39.66l8.8 11.72A100.69 100.69 0 0130.53 74.4l2.51 6.28L24.66 90l-3.9-11.68a100.68 100.68 0 00-12.54-25.2l-.42-.61a10.13 10.13 0 01-1.78-5.74 10.13 10.13 0 012.02-6.08z"/>
  <path fill="#ffbc42" d="M26.53 39.66l-8.8 11.72A100.69 100.69 0 004.8 74.4L2.3 80.68 10.68 90l3.9-11.68a100.68 100.68 0 0112.54-25.2l.42-.61a10.13 10.13 0 001.78-5.74 10.13 10.13 0 00-2.02-6.08z"/>
</svg>
