<svg xmlns="http://www.w3.org/2000/svg" viewBox="0 0 64 64">
  <g fill="#5076B8">
    <path d="M17.73 3.74c5.95 7.82 20.2 11.04 28.36-.45-6.34 16.01-25.6 11.04-28.36.45"/>
    <path d="M32.02 9.42c1.43 0 2.6-1.45 2.6-3.26 0-1.82-1.17-3.3-2.6-3.3-1.44 0-2.6 1.47-2.6 3.29-.03 1.79 1.14 3.27 2.6 3.27M18.15 59.86c6.17-7.67 20.5-10.5 28.32 1.2-5.87-16.13-25.26-11.7-28.32-1.2"/>
    <path d="M32.42 61.13a3 3 0 002.68-3.21c.08-1.83-1.06-3.32-2.53-3.36a3 3 0 00-2.68 3.22c-.07 1.82 1.06 3.31 2.53 3.35M14.52 6.66C18.35 15.73 14.03 29.7 0 31.01c16.98 2.47 22.3-16.68 14.52-24.35"/>
    <path d="M6.63 18.59c-.72 1.26-.03 2.98 1.53 3.9a3.04 3.04 0 004.15-.62c.72-1.26.03-2.99-1.53-3.9-1.58-.91-3.43-.62-4.15.62m7.95 39.55c3.84-9.07-.53-23.02-14.52-24.35 17.02-2.5 22.31 16.68 14.52 24.35"/>
    <path d="M6.7 46.2c-.72-1.27-.04-3 1.52-3.9a3.04 3.04 0 014.16.6c.71 1.27.03 2.99-1.53 3.9-1.56.92-3.4.66-4.16-.6M49.36 6.17c-3.83 9.06.52 23.02 14.51 24.35-16.97 2.5-22.3-16.69-14.51-24.35"/>
    <path d="M57.25 18.13c.72 1.27.03 2.99-1.53 3.9a3.04 3.04 0 01-4.15-.62c-.72-1.26-.03-2.98 1.53-3.9 1.58-.9 3.44-.64 4.15.62m-7.77 39.95C45.66 49 50.01 35.05 64 33.72c-17.01-2.46-22.3 16.7-14.52 24.36"/>
    <path d="M57.38 46.15c.72-1.26.03-2.98-1.52-3.9a3.04 3.04 0 00-4.16.62c-.72 1.27-.03 2.99 1.53 3.9a3.04 3.04 0 004.15-.62M32.64 31.38c-1.58-2.82-3.97-5.46-6.89-6.33-.74-3.48.07-5.42.69-5.98 5.74 3.37 6.82 7.9 6.2 12.31"/>
    <path d="M33.25 31.25c.53-3.22.33-6.75-1.42-9.26 1.59-3.17 3.43-4.18 4.25-4.25 2.37 6.26.4 10.46-2.82 13.5"/>
    <path d="M33.42 32.03c2.46-2.08 4.64-4.9 4.96-7.92 3.28-1.37 5.37-.95 5.98-.42-2.25 6.26-6.5 8.15-10.94 8.34"/>
    <path d="M33.78 33c3.21-.35 6.59-1.46 8.54-3.83 3.47.68 4.96 2.21 5.22 3-5.4 3.95-9.97 3.13-13.76.84"/>
    <path d="M33.19 33.88c2.9 1.5 6.3 2.43 9.22 1.58 2.5 2.53 2.89 4.62 2.67 5.4-6.67.26-10-2.95-11.9-6.98"/>
    <path d="M32.22 34.3c1.56 2.86 3.85 5.56 6.74 6.47.69 3.47-.16 5.42-.77 5.94-5.69-3.48-6.7-7.99-5.97-12.4"/>
    <path d="M31.1 34.07c-.38 3.22-.02 6.76 1.8 9.2-1.47 3.24-3.29 4.35-4.1 4.42-2.6-6.14-.81-10.43 2.3-13.62"/>
    <path d="M30.4 33c-2.18 2.41-3.93 5.49-3.83 8.55-3.06 1.79-5.17 1.65-5.89 1.23 1.37-6.54 5.34-8.96 9.71-9.77"/>
    <path d="M30.5 31.96c-3.16.72-6.4 2.22-8.06 4.75-3.54-.29-5.16-1.63-5.52-2.37 4.87-4.52 9.52-4.25 13.58-2.38"/>
    <path d="M31.6 31.31c-2.99-1.23-6.5-1.88-9.32-.77-2.7-2.28-3.27-4.32-3.11-5.13 6.58-.85 10.19 2.04 12.43 5.9"/>
  </g>
</svg>
